{"title":"The Man in the High Castle S01E02 Sunrise x264 poke mp4","uid":12626906,"size":285624929,"categoryP":"video","categoryS":"tv_shows","magnet":"?xt=urn:btih:8bb47fec968af633fb8f85f3a26db685774a9573&amp;dn=The+Man+in+the+High+Castle+S01E02+Sunrise+x264+poke+mp4&amp;tr=udp%3A%2F%2Ftracker.leechers-paradise.org%3A6969&amp;tr=udp%3A%2F%2Fzer0day.ch%3A1337&amp;tr=udp%3A%2F%2Fopen.demonii.com%3A1337&amp;tr=udp%3A%2F%2Ftracker.coppersurfer.tk%3A6969&amp;tr=udp%3A%2F%2Fexodus.desync.com%3A6969","seeders":25,"leechers":0,"uploader":"psspss","files":1,"time":1445786453,"description":"he Man in the High Castle 102 Sunrise x264 poke mp4\r\n\r\nsource from amazon?? very good quality\r\n\r\nSunrise\r\nThank you Poke for the share.\r\nFrank is being interrogated by the Japanese authorities for information about Juliana’s whereabouts. Juliana meets a man who makes Origami birds and talks to her about the Bible. Meanwhile, in the Pacific States, Frank’s sister and her two children are being taken into custody by the Japanese Kempeitai and Frank is told they will be killed along with him for being Jewish if he does not cooperate. Juliana meets with the Origami man.\r\n\r\nGeneral\r\nComplete name : M:PostsThe Man in the High Castle S01E02 Sunrise x264 pokeThe_Man_in_the_High_Castle_S01E02_Sunrise_x264_poke.mp4\r\nFormat : MPEG-4\r\nFormat profile : Base Media / Version 2\r\nCodec ID : mp42\r\nFile size : 272 MiB\r\nDuration : 58mn 44s\r\nOverall bit rate mode : Variable\r\nOverall bit rate : 648 Kbps\r\nWriting application : HandBrake 6548svn 2014112401\r\n\r\nVideo\r\nID : 1\r\nFormat : AVC\r\nFormat/Info : Advanced Video Codec\r\nFormat profile :   \r\nFormat settings, CABAC : Yes\r\nFormat settings, ReFrames : 4 frames\r\nCodec ID : avc1\r\nCodec ID/Info : Advanced Video Coding\r\nDuration : 58mn 44s\r\nBit rate : 480 Kbps\r\nWidth : 720 pixels\r\nHeight : 406 pixels\r\nDisplay aspect ratio : 16:9\r\nOriginal display aspect ratio : 16:9\r\nFrame rate mode : Constant\r\nFrame rate : 29.970 fps\r\nColor space : YUV\r\nChroma subsampling : 4:2:0\r\nBit depth : 8 bits\r\nScan type : Progressive\r\nBits/(Pixel*Frame) : 0.055\r\nStream size : 202 MiB (74%)\r\nWriting library : x264 core 142 r2479 dd79a61\r\nEncoding settings : cabac=1 / ref=1 / deblock=1:0:0 / analyse=0x1:0x111 / me=hex / subme=2 / psy=1 / psy_rd=1.00:0.00 / mixed_ref=0 / me_range=16 / chroma_me=1 / trellis=0 / 8x8dct=0 / cqm=0 / deadzone=21,11 / fast_pskip=1 / chroma_qp_offset=0 / threads=12 / lookahead_threads=3 / sliced_threads=0 / nr=0 / decimate=1 / interlaced=0 / bluray_compat=0 / constrained_intra=0 / bframes=3 / b_pyramid=2 / b_adapt=1 / b_bias=0 / direct=1 / weightb=1 / open_gop=0 / weightp=1 / keyint=300 / keyint_min=30 / scenecut=40 / intra_refresh=0 / rc_lookahead=10 / rc=crf / mbtree=1 / crf=19.0 / qcomp=0.60 / qpmin=0 / qpmax=69 / qpstep=4 / vbv_maxrate=20000 / vbv_bufsize=25000 / crf_max=0.0 / nal_hrd=none / filler=0 / ip_ratio=1.40 / aq=1:1.00\r\nColor primaries : BT.709-5, BT.1361, IEC 61966-2-4, SMPTE RP177\r\nTransfer characteristics : BT.709-5, BT.1361\r\nMatrix coefficients : BT.709-5, BT.1361, IEC 61966-2-4 709, SMPTE RP177\r\n\r\nAudio\r\nID : 2\r\nFormat : AAC\r\nFormat/Info : Advanced Audio Codec\r\nFormat profile : LC\r\nCodec ID : 40\r\nDuration : 58mn 44s\r\nBit rate mode : Variable\r\nBit rate : 162 Kbps\r\nChannel(s) : 2 channels\r\nChannel positions : Front: L R\r\nSampling rate : 48.0 KHz\r\nCompression mode : Lossy\r\nStream size : 67.9 MiB (25%)\r\nTitle : Stereo","torrent":{"xt":"urn:btih:8bb47fec968af633fb8f85f3a26db685774a9573","amp;dn":"The+Man+in+the+High+Castle+S01E02+Sunrise+x264+poke+mp4","amp;tr":["udp%3A%2F%2Ftracker.leechers-paradise.org%3A6969","udp%3A%2F%2Fzer0day.ch%3A1337","udp%3A%2F%2Fopen.demonii.com%3A1337","udp%3A%2F%2Ftracker.coppersurfer.tk%3A6969","udp%3A%2F%2Fexodus.desync.com%3A6969"],"infoHash":"8bb47fec968af633fb8f85f3a26db685774a9573","infoHashBuffer":{"type":"Buffer","data":[139,180,127,236,150,138,246,51,251,143,133,243,162,109,182,133,119,74,149,115]},"announce":[],"urlList":[]}}